name ./resultDataOpenSim/trcMotMarkerGrf/sub09/grf-04-04.mot
datacolumns 19
datarows 25
range 0.49600000 0.59200000
endheader

                time	     ground_force_vx	     ground_force_vy	     ground_force_vz	     ground_force_px	     ground_force_py	     ground_force_pz	   l_ground_force_vx	   l_ground_force_vy	   l_ground_force_vz	   l_ground_force_px	   l_ground_force_py	   l_ground_force_pz	     ground_torque_x	     ground_torque_y	     ground_torque_z	   l_ground_torque_x	   l_ground_torque_y	   l_ground_torque_z	
          0.49600000	         36.44213712	        427.13952336	         -6.99077578	         -0.69332225	          0.00000000	          0.08749959	          0.00000000	          0.00000000	          0.00000000	          0.00000000	          0.00000000	          0.00000000	          0.00000000	          4.13079946	          0.00000000	          0.00000000	          0.00000000	          0.00000000	
          0.50000000	         38.05404881	        436.69796615	         -7.96162932	         -0.69242177	          0.00000000	          0.08794642	          0.00000000	          0.00000000	          0.00000000	          0.00000000	          0.00000000	          0.00000000	          0.00000000	          4.17296913	          0.00000000	          0.00000000	          0.00000000	          0.00000000	
          0.50400000	         39.65066776	        446.12472903	         -9.45210011	         -0.69123436	          0.00000000	          0.08849039	          0.00000000	          0.00000000	          0.00000000	          0.00000000	          0.00000000	          0.00000000	          0.00000000	          4.16860235	          0.00000000	          0.00000000	          0.00000000	          0.00000000	
          0.50800000	         41.30002022	        455.39282419	        -11.35836211	         -0.68983944	          0.00000000	          0.08910509	          0.00000000	          0.00000000	          0.00000000	          0.00000000	          0.00000000	          0.00000000	          0.00000000	          4.13338576	          0.00000000	          0.00000000	          0.00000000	          0.00000000	
          0.51200000	         43.03674419	        464.56946473	        -13.54230943	         -0.68830240	          0.00000000	          0.08977062	          0.00000000	          0.00000000	          0.00000000	          0.00000000	          0.00000000	          0.00000000	          0.00000000	          4.08559898	          0.00000000	          0.00000000	          0.00000000	          0.00000000	
          0.51600000	         44.88025318	        473.75907247	        -15.86469069	         -0.68669257	          0.00000000	          0.09046693	          0.00000000	          0.00000000	          0.00000000	          0.00000000	          0.00000000	          0.00000000	          0.00000000	          4.04140661	          0.00000000	          0.00000000	          0.00000000	          0.00000000	
          0.52000000	         46.85546717	        483.06739350	        -18.21431264	         -0.68506165	          0.00000000	          0.09117603	          0.00000000	          0.00000000	          0.00000000	          0.00000000	          0.00000000	          0.00000000	          0.00000000	          4.01097397	          0.00000000	          0.00000000	          0.00000000	          0.00000000	
          0.52400000	         49.01064844	        492.59856315	        -20.52551818	         -0.68344171	          0.00000000	          0.09186630	          0.00000000	          0.00000000	          0.00000000	          0.00000000	          0.00000000	          0.00000000	          0.00000000	          3.99629548	          0.00000000	          0.00000000	          0.00000000	          0.00000000	
          0.52800000	         51.42640248	        502.46442138	        -22.77871729	         -0.68186412	          0.00000000	          0.09250053	          0.00000000	          0.00000000	          0.00000000	          0.00000000	          0.00000000	          0.00000000	          0.00000000	          3.99131284	          0.00000000	          0.00000000	          0.00000000	          0.00000000	
          0.53200000	         54.20809967	        512.77470673	        -24.98291591	         -0.68036493	          0.00000000	          0.09304747	          0.00000000	          0.00000000	          0.00000000	          0.00000000	          0.00000000	          0.00000000	          0.00000000	          3.98440024	          0.00000000	          0.00000000	          0.00000000	          0.00000000	
          0.53600000	         57.46061384	        523.60739838	        -27.14669381	         -0.67897130	          0.00000000	          0.09348591	          0.00000000	          0.00000000	          0.00000000	          0.00000000	          0.00000000	          0.00000000	          0.00000000	          3.96265020	          0.00000000	          0.00000000	          0.00000000	          0.00000000	
          0.54000000	         61.25689109	        534.98668070	        -29.24879366	         -0.67769479	          0.00000000	          0.09380184	          0.00000000	          0.00000000	          0.00000000	          0.00000000	          0.00000000	          0.00000000	          0.00000000	          3.91679156	          0.00000000	          0.00000000	          0.00000000	          0.00000000	
          0.54400000	         65.61367033	        546.88901162	        -31.21859600	         -0.67653403	          0.00000000	          0.09398683	          0.00000000	          0.00000000	          0.00000000	          0.00000000	          0.00000000	          0.00000000	          0.00000000	          3.84526636	          0.00000000	          0.00000000	          0.00000000	          0.00000000	
          0.54800000	         70.48172283	        559.26324831	        -32.93617420	         -0.67547937	          0.00000000	          0.09403799	          0.00000000	          0.00000000	          0.00000000	          0.00000000	          0.00000000	          0.00000000	          0.00000000	          3.75617515	          0.00000000	          0.00000000	          0.00000000	          0.00000000	
          0.55200000	         75.75244234	        572.03969797	        -34.25624967	         -0.67450727	          0.00000000	          0.09395460	          0.00000000	          0.00000000	          0.00000000	          0.00000000	          0.00000000	          0.00000000	          0.00000000	          3.66645027	          0.00000000	          0.00000000	          0.00000000	          0.00000000	
          0.55600000	         81.28029881	        585.12652889	        -35.04470135	         -0.67358140	          0.00000000	          0.09374215	          0.00000000	          0.00000000	          0.00000000	          0.00000000	          0.00000000	          0.00000000	          0.00000000	          3.59845985	          0.00000000	          0.00000000	          0.00000000	          0.00000000	
          0.56000000	         86.91731964	        598.40745994	        -35.20904070	         -0.67267159	          0.00000000	          0.09341786	          0.00000000	          0.00000000	          0.00000000	          0.00000000	          0.00000000	          0.00000000	          0.00000000	          3.57492641	          0.00000000	          0.00000000	          0.00000000	          0.00000000	
          0.56400000	         92.54690533	        611.74887741	        -34.71687641	         -0.67176712	          0.00000000	          0.09300621	          0.00000000	          0.00000000	          0.00000000	          0.00000000	          0.00000000	          0.00000000	          0.00000000	          3.61337195	          0.00000000	          0.00000000	          0.00000000	          0.00000000	
          0.56800000	         98.10383555	        625.01136977	        -33.60584371	         -0.67087219	          0.00000000	          0.09253338	          0.00000000	          0.00000000	          0.00000000	          0.00000000	          0.00000000	          0.00000000	          0.00000000	          3.72134052	          0.00000000	          0.00000000	          0.00000000	          0.00000000	
          0.57200000	        103.57636541	        638.05541923	        -31.98288203	         -0.66999504	          0.00000000	          0.09202624	          0.00000000	          0.00000000	          0.00000000	          0.00000000	          0.00000000	          0.00000000	          0.00000000	          3.89351674	          0.00000000	          0.00000000	          0.00000000	          0.00000000	
          0.57600000	        108.99553482	        650.74012721	        -30.01042614	         -0.66913766	          0.00000000	          0.09150936	          0.00000000	          0.00000000	          0.00000000	          0.00000000	          0.00000000	          0.00000000	          0.00000000	          4.11154655	          0.00000000	          0.00000000	          0.00000000	          0.00000000	
          0.58000000	        114.42261871	        662.92129874	        -27.88560536	         -0.66830141	          0.00000000	          0.09099973	          0.00000000	          0.00000000	          0.00000000	          0.00000000	          0.00000000	          0.00000000	          0.00000000	          4.34681986	          0.00000000	          0.00000000	          0.00000000	          0.00000000	
          0.58400000	        119.93823618	        674.44795720	        -25.81718066	         -0.66750244	          0.00000000	          0.09050610	          0.00000000	          0.00000000	          0.00000000	          0.00000000	          0.00000000	          0.00000000	          0.00000000	          4.56577659	          0.00000000	          0.00000000	          0.00000000	          0.00000000	
          0.58800000	        125.62619229	        685.15589993	        -23.99841022	         -0.66676385	          0.00000000	          0.09003614	          0.00000000	          0.00000000	          0.00000000	          0.00000000	          0.00000000	          0.00000000	          0.00000000	          4.73664977	          0.00000000	          0.00000000	          0.00000000	          0.00000000	
          0.59200000	        131.54798364	        694.87162307	        -22.57746457	         -0.66609366	          0.00000000	          0.08959799	          0.00000000	          0.00000000	          0.00000000	          0.00000000	          0.00000000	          0.00000000	          0.00000000	          4.83614841	          0.00000000	          0.00000000	          0.00000000	          0.00000000	
